<?xml version="1.0" standalone="no"?>
<!DOCTYPE svg PUBLIC "-//W3C//DTD SVG 20010904//EN"
 "http://www.w3.org/TR/2001/REC-SVG-20010904/DTD/svg10.dtd">
<svg version="1.0" xmlns="http://www.w3.org/2000/svg"
 width="319.000000pt" height="319.000000pt" viewBox="0 0 319.000000 319.000000"
 preserveAspectRatio="xMidYMid meet">
<metadata>
Created by potrace 1.14, written by Peter Selinger 2001-2017
</metadata>
<g transform="translate(0.000000,319.000000) scale(0.100000,-0.100000)"
fill="#000000" stroke="none">
<path d="M1464 3148 c-57 -39 -93 -102 -97 -169 l-2 -46 -113 0 -112 -1 -17
29 c-23 39 -84 78 -136 87 -23 5 -112 7 -197 7 -121 -2 -164 -6 -195 -19 -39
-16 -105 -77 -105 -95 0 -5 -60 -9 -134 -9 -138 1 -187 -9 -241 -45 -41 -28
-62 -54 -91 -112 l-24 -50 0 -1237 0 -1238 25 -56 c27 -61 57 -92 120 -127
l40 -22 1375 -2 c1306 -3 1377 -2 1423 15 66 25 121 81 146 148 21 54 21 66
21 1282 -1 1007 -3 1234 -14 1265 -34 93 -113 162 -201 173 -22 3 -85 6 -140
7 l-99 2 -3 45 c-4 67 -41 130 -97 168 l-48 32 -518 0 -518 0 -48 -32z m-978
-611 c45 -15 48 -83 5 -106 -11 -7 -82 -11 -169 -11 -129 0 -151 2 -165 18
-29 33 -26 77 9 95 27 14 279 17 320 4z m1288 -222 c241 -61 437 -215 558
-435 91 -168 119 -405 69 -600 -68 -272 -275 -503 -535 -597 -147 -53 -350
-62 -501 -23 -88 23 -240 93 -295 137 -51 41 -142 132 -177 178 -56 73 -122
205 -139 280 -35 149 -38 286 -10 418 71 331 347 593 691 655 76 14 261 7 339
-13z m-1271 -16 c22 -28 22 -54 -3 -79 -18 -18 -33 -20 -168 -20 -165 0 -192
8 -192 59 0 59 33 68 230 64 103 -3 117 -5 133 -24z"/>
<path d="M1440 2116 c-249 -61 -425 -230 -490 -472 -35 -128 -17 -303 43 -434
106 -230 367 -385 617 -367 87 7 114 12 176 33 171 58 330 211 390 375 40 109
54 254 34 344 -7 28 -14 60 -16 73 -15 76 -108 227 -180 291 -63 55 -158 111
-236 138 -90 31 -252 40 -338 19z m187 -193 c9 -23 -18 -40 -72 -46 -175 -19
-305 -146 -337 -329 -13 -77 -23 -92 -50 -77 -18 10 -19 17 -14 69 22 206 177
368 381 399 58 8 85 4 92 -16z m7 -295 c62 -26 96 -76 96 -145 0 -107 -126
-185 -223 -138 -70 33 -106 137 -72 209 34 71 125 105 199 74z"/>
</g>
</svg>
